<?xml version="1.0" encoding="UTF-8" standalone="no"?>
<!DOCTYPE svg PUBLIC "-//W3C//DTD SVG 1.1//EN"
 "http://www.w3.org/Graphics/SVG/1.1/DTD/svg11.dtd">
<!-- Generated by graphviz version 2.43.0 (0)
 -->
<!-- Title: yup::InputSource Pages: 1 -->
<svg width="432pt" height="93pt"
 viewBox="0.00 0.00 431.50 93.00" xmlns="http://www.w3.org/2000/svg" xmlns:xlink="http://www.w3.org/1999/xlink">
<g id="graph0" class="graph" transform="scale(1 1) rotate(0) translate(4 89)">
<title>yup::InputSource</title>
<!-- Node1 -->
<g id="Node000001" class="node">
<title>Node1</title>
<g id="a_Node000001"><a xlink:title="A lightweight object that can create a stream to read some kind of resource.">
<polygon fill="#999999" stroke="#666666" points="278.5,-85 180.5,-85 180.5,-66 278.5,-66 278.5,-85"/>
<text text-anchor="middle" x="229.5" y="-73" font-family="Helvetica,sans-Serif" font-size="10.00">yup::InputSource</text>
</a>
</g>
</g>
<!-- Node2 -->
<g id="Node000002" class="node">
<title>Node2</title>
<g id="a_Node000002"><a xlink:href="classyup_1_1AndroidDocumentInputSource.html" target="_top" xlink:title="An InputSource backed by an AndroidDocument.">
<polygon fill="white" stroke="#666666" points="153,-30 0,-30 0,0 153,0 153,-30"/>
<text text-anchor="start" x="8" y="-18" font-family="Helvetica,sans-Serif" font-size="10.00">yup::AndroidDocumentInput</text>
<text text-anchor="middle" x="76.5" y="-7" font-family="Helvetica,sans-Serif" font-size="10.00">Source</text>
</a>
</g>
</g>
<!-- Node1&#45;&gt;Node2 -->
<g id="edge1_Node000001_Node000002" class="edge">
<title>Node1&#45;&gt;Node2</title>
<g id="a_edge1_Node000001_Node000002"><a xlink:title=" ">
<path fill="none" stroke="#63b8ff" d="M197.68,-62.33C173.09,-52.93 139.03,-39.91 113.28,-30.06"/>
<polygon fill="#63b8ff" stroke="#63b8ff" points="196.66,-65.69 207.25,-65.99 199.16,-59.15 196.66,-65.69"/>
</a>
</g>
</g>
<!-- Node3 -->
<g id="Node000003" class="node">
<title>Node3</title>
<g id="a_Node000003"><a xlink:href="classyup_1_1FileInputSource.html" target="_top" xlink:title="A type of InputSource that represents a normal file.">
<polygon fill="white" stroke="#666666" points="287.5,-24.5 171.5,-24.5 171.5,-5.5 287.5,-5.5 287.5,-24.5"/>
<text text-anchor="middle" x="229.5" y="-12.5" font-family="Helvetica,sans-Serif" font-size="10.00">yup::FileInputSource</text>
</a>
</g>
</g>
<!-- Node1&#45;&gt;Node3 -->
<g id="edge2_Node000001_Node000003" class="edge">
<title>Node1&#45;&gt;Node3</title>
<g id="a_edge2_Node000001_Node000003"><a xlink:title=" ">
<path fill="none" stroke="#63b8ff" d="M229.5,-55.66C229.5,-45.24 229.5,-32.8 229.5,-24.67"/>
<polygon fill="#63b8ff" stroke="#63b8ff" points="226,-55.87 229.5,-65.87 233,-55.87 226,-55.87"/>
</a>
</g>
</g>
<!-- Node4 -->
<g id="Node000004" class="node">
<title>Node4</title>
<g id="a_Node000004"><a xlink:href="classyup_1_1URLInputSource.html" target="_top" xlink:title="A type of InputSource that represents a URL.">
<polygon fill="white" stroke="#666666" points="423.5,-24.5 305.5,-24.5 305.5,-5.5 423.5,-5.5 423.5,-24.5"/>
<text text-anchor="middle" x="364.5" y="-12.5" font-family="Helvetica,sans-Serif" font-size="10.00">yup::URLInputSource</text>
</a>
</g>
</g>
<!-- Node1&#45;&gt;Node4 -->
<g id="edge3_Node000001_Node000004" class="edge">
<title>Node1&#45;&gt;Node4</title>
<g id="a_edge3_Node000001_Node000004"><a xlink:title=" ">
<path fill="none" stroke="#63b8ff" d="M258.5,-61.93C284.57,-50.64 322.14,-34.36 344.85,-24.52"/>
<polygon fill="#63b8ff" stroke="#63b8ff" points="256.91,-58.81 249.13,-65.99 259.7,-65.23 256.91,-58.81"/>
</a>
</g>
</g>
</g>
</svg>
