<?xml version="1.0" encoding="UTF-8" standalone="no"?>
<!DOCTYPE svg PUBLIC "-//W3C//DTD SVG 1.1//EN"
 "http://www.w3.org/Graphics/SVG/1.1/DTD/svg11.dtd">
<!-- Generated by graphviz version 2.43.0 (0)
 -->
<!-- Title: yup::AudioSource Pages: 1 -->
<svg width="500pt" height="261pt"
 viewBox="0.00 0.00 500.00 260.50" xmlns="http://www.w3.org/2000/svg" xmlns:xlink="http://www.w3.org/1999/xlink">
<g id="graph0" class="graph" transform="scale(1 1) rotate(0) translate(4 256.5)">
<title>yup::AudioSource</title>
<!-- Node1 -->
<g id="Node000001" class="node">
<title>Node1</title>
<g id="a_Node000001"><a xlink:title="Base class for objects that can produce a continuous stream of audio.">
<polygon fill="#999999" stroke="#666666" points="101,-130 0,-130 0,-111 101,-111 101,-130"/>
<text text-anchor="middle" x="50.5" y="-118" font-family="Helvetica,sans-Serif" font-size="10.00">yup::AudioSource</text>
</a>
</g>
</g>
<!-- Node2 -->
<g id="Node000002" class="node">
<title>Node2</title>
<g id="a_Node000002"><a xlink:href="classyup_1_1ChannelRemappingAudioSource.html" target="_top" xlink:title="An AudioSource that takes the audio from another source, and re&#45;maps its input and output channels to...">
<polygon fill="white" stroke="#666666" points="305.5,-252.5 141.5,-252.5 141.5,-222.5 305.5,-222.5 305.5,-252.5"/>
<text text-anchor="start" x="149.5" y="-240.5" font-family="Helvetica,sans-Serif" font-size="10.00">yup::ChannelRemappingAudio</text>
<text text-anchor="middle" x="223.5" y="-229.5" font-family="Helvetica,sans-Serif" font-size="10.00">Source</text>
</a>
</g>
</g>
<!-- Node1&#45;&gt;Node2 -->
<g id="edge1_Node000001_Node000002" class="edge">
<title>Node1&#45;&gt;Node2</title>
<g id="a_edge1_Node000001_Node000002"><a xlink:title=" ">
<path fill="none" stroke="#63b8ff" d="M63.24,-138.38C77.99,-159.44 105.25,-194.01 137,-213.5 142.52,-216.89 148.53,-219.81 154.72,-222.33"/>
<polygon fill="#63b8ff" stroke="#63b8ff" points="66.06,-136.31 57.54,-130.01 60.28,-140.25 66.06,-136.31"/>
</a>
</g>
</g>
<!-- Node3 -->
<g id="Node000003" class="node">
<title>Node3</title>
<g id="a_Node000003"><a xlink:href="classyup_1_1IIRFilterAudioSource.html" target="_top" xlink:title="An AudioSource that performs an IIR filter on another source.">
<polygon fill="white" stroke="#666666" points="293,-204 154,-204 154,-185 293,-185 293,-204"/>
<text text-anchor="middle" x="223.5" y="-192" font-family="Helvetica,sans-Serif" font-size="10.00">yup::IIRFilterAudioSource</text>
</a>
</g>
</g>
<!-- Node1&#45;&gt;Node3 -->
<g id="edge2_Node000001_Node000003" class="edge">
<title>Node1&#45;&gt;Node3</title>
<g id="a_edge2_Node000001_Node000003"><a xlink:title=" ">
<path fill="none" stroke="#63b8ff" d="M71.48,-136.7C88.08,-149.36 112.8,-166.45 137,-176.5 145.13,-179.87 153.96,-182.64 162.76,-184.91"/>
<polygon fill="#63b8ff" stroke="#63b8ff" points="73.18,-133.59 63.15,-130.19 68.88,-139.11 73.18,-133.59"/>
</a>
</g>
</g>
<!-- Node4 -->
<g id="Node000004" class="node">
<title>Node4</title>
<g id="a_Node000004"><a xlink:href="classyup_1_1MixerAudioSource.html" target="_top" xlink:title="An AudioSource that mixes together the output of a set of other AudioSources.">
<polygon fill="white" stroke="#666666" points="287.5,-167 159.5,-167 159.5,-148 287.5,-148 287.5,-167"/>
<text text-anchor="middle" x="223.5" y="-155" font-family="Helvetica,sans-Serif" font-size="10.00">yup::MixerAudioSource</text>
</a>
</g>
</g>
<!-- Node1&#45;&gt;Node4 -->
<g id="edge3_Node000001_Node000004" class="edge">
<title>Node1&#45;&gt;Node4</title>
<g id="a_edge3_Node000001_Node000004"><a xlink:title=" ">
<path fill="none" stroke="#63b8ff" d="M103.95,-132.25C114.86,-134.67 126.3,-137.19 137,-139.5 149.9,-142.29 163.9,-145.26 176.78,-147.97"/>
<polygon fill="#63b8ff" stroke="#63b8ff" points="104.62,-128.82 94.1,-130.06 103.1,-135.65 104.62,-128.82"/>
</a>
</g>
</g>
<!-- Node5 -->
<g id="Node000005" class="node">
<title>Node5</title>
<g id="a_Node000005"><a xlink:href="classyup_1_1PositionableAudioSource.html" target="_top" xlink:title="A type of AudioSource which can be repositioned.">
<polygon fill="white" stroke="#666666" points="304,-130 143,-130 143,-111 304,-111 304,-130"/>
<text text-anchor="middle" x="223.5" y="-118" font-family="Helvetica,sans-Serif" font-size="10.00">yup::PositionableAudioSource</text>
</a>
</g>
</g>
<!-- Node1&#45;&gt;Node5 -->
<g id="edge4_Node000001_Node000005" class="edge">
<title>Node1&#45;&gt;Node5</title>
<g id="a_edge4_Node000001_Node000005"><a xlink:title=" ">
<path fill="none" stroke="#63b8ff" d="M111.72,-120.5C121.82,-120.5 132.43,-120.5 142.92,-120.5"/>
<polygon fill="#63b8ff" stroke="#63b8ff" points="111.42,-117 101.42,-120.5 111.42,-124 111.42,-117"/>
</a>
</g>
</g>
<!-- Node9 -->
<g id="Node000009" class="node">
<title>Node9</title>
<g id="a_Node000009"><a xlink:href="classyup_1_1ResamplingAudioSource.html" target="_top" xlink:title="A type of AudioSource that takes an input source and changes its sample rate.">
<polygon fill="white" stroke="#666666" points="303,-93 144,-93 144,-74 303,-74 303,-93"/>
<text text-anchor="middle" x="223.5" y="-81" font-family="Helvetica,sans-Serif" font-size="10.00">yup::ResamplingAudioSource</text>
</a>
</g>
</g>
<!-- Node1&#45;&gt;Node9 -->
<g id="edge8_Node000001_Node000009" class="edge">
<title>Node1&#45;&gt;Node9</title>
<g id="a_edge8_Node000001_Node000009"><a xlink:title=" ">
<path fill="none" stroke="#63b8ff" d="M103.95,-108.75C114.86,-106.33 126.3,-103.81 137,-101.5 149.9,-98.71 163.9,-95.74 176.78,-93.03"/>
<polygon fill="#63b8ff" stroke="#63b8ff" points="103.1,-105.35 94.1,-110.94 104.62,-112.18 103.1,-105.35"/>
</a>
</g>
</g>
<!-- Node10 -->
<g id="Node000010" class="node">
<title>Node10</title>
<g id="a_Node000010"><a xlink:href="classyup_1_1ReverbAudioSource.html" target="_top" xlink:title="An AudioSource that uses the Reverb class to apply a reverb to another AudioSource.">
<polygon fill="white" stroke="#666666" points="291.5,-56 155.5,-56 155.5,-37 291.5,-37 291.5,-56"/>
<text text-anchor="middle" x="223.5" y="-44" font-family="Helvetica,sans-Serif" font-size="10.00">yup::ReverbAudioSource</text>
</a>
</g>
</g>
<!-- Node1&#45;&gt;Node10 -->
<g id="edge9_Node000001_Node000010" class="edge">
<title>Node1&#45;&gt;Node10</title>
<g id="a_edge9_Node000001_Node000010"><a xlink:title=" ">
<path fill="none" stroke="#63b8ff" d="M71.48,-104.3C88.08,-91.64 112.8,-74.55 137,-64.5 145.13,-61.13 153.96,-58.36 162.76,-56.09"/>
<polygon fill="#63b8ff" stroke="#63b8ff" points="68.88,-101.89 63.15,-110.81 73.18,-107.41 68.88,-101.89"/>
</a>
</g>
</g>
<!-- Node11 -->
<g id="Node000011" class="node">
<title>Node11</title>
<g id="a_Node000011"><a xlink:href="classyup_1_1ToneGeneratorAudioSource.html" target="_top" xlink:title="A simple AudioSource that generates a sine wave.">
<polygon fill="white" stroke="#666666" points="310,-19 137,-19 137,0 310,0 310,-19"/>
<text text-anchor="middle" x="223.5" y="-7" font-family="Helvetica,sans-Serif" font-size="10.00">yup::ToneGeneratorAudioSource</text>
</a>
</g>
</g>
<!-- Node1&#45;&gt;Node11 -->
<g id="edge10_Node000001_Node000011" class="edge">
<title>Node1&#45;&gt;Node11</title>
<g id="a_edge10_Node000001_Node000011"><a xlink:title=" ">
<path fill="none" stroke="#63b8ff" d="M63.03,-102.26C77.57,-80.85 104.62,-45.93 137,-27.5 142.93,-24.12 149.42,-21.38 156.09,-19.15"/>
<polygon fill="#63b8ff" stroke="#63b8ff" points="59.99,-100.5 57.42,-110.78 65.84,-104.35 59.99,-100.5"/>
</a>
</g>
</g>
<!-- Node6 -->
<g id="Node000006" class="node">
<title>Node6</title>
<g id="a_Node000006"><a xlink:href="classyup_1_1AudioTransportSource.html" target="_top" xlink:title="An AudioSource that takes a PositionableAudioSource and allows it to be played, stopped,...">
<polygon fill="white" stroke="#666666" points="492,-167 346,-167 346,-148 492,-148 492,-167"/>
<text text-anchor="middle" x="419" y="-155" font-family="Helvetica,sans-Serif" font-size="10.00">yup::AudioTransportSource</text>
</a>
</g>
</g>
<!-- Node5&#45;&gt;Node6 -->
<g id="edge5_Node000005_Node000006" class="edge">
<title>Node5&#45;&gt;Node6</title>
<g id="a_edge5_Node000005_Node000006"><a xlink:title=" ">
<path fill="none" stroke="#63b8ff" d="M284.37,-131.95C311.19,-137.08 342.46,-143.06 368,-147.94"/>
<polygon fill="#63b8ff" stroke="#63b8ff" points="284.81,-128.47 274.33,-130.03 283.5,-135.34 284.81,-128.47"/>
</a>
</g>
</g>
<!-- Node7 -->
<g id="Node000007" class="node">
<title>Node7</title>
<g id="a_Node000007"><a xlink:href="classyup_1_1BufferingAudioSource.html" target="_top" xlink:title="An AudioSource which takes another source as input, and buffers it using a thread.">
<polygon fill="white" stroke="#666666" points="492,-130 346,-130 346,-111 492,-111 492,-130"/>
<text text-anchor="middle" x="419" y="-118" font-family="Helvetica,sans-Serif" font-size="10.00">yup::BufferingAudioSource</text>
</a>
</g>
</g>
<!-- Node5&#45;&gt;Node7 -->
<g id="edge6_Node000005_Node000007" class="edge">
<title>Node5&#45;&gt;Node7</title>
<g id="a_edge6_Node000005_Node000007"><a xlink:title=" ">
<path fill="none" stroke="#63b8ff" d="M314.18,-120.5C324.82,-120.5 335.56,-120.5 345.91,-120.5"/>
<polygon fill="#63b8ff" stroke="#63b8ff" points="314.04,-117 304.04,-120.5 314.04,-124 314.04,-117"/>
</a>
</g>
</g>
<!-- Node8 -->
<g id="Node000008" class="node">
<title>Node8</title>
<g id="a_Node000008"><a xlink:href="classyup_1_1MemoryAudioSource.html" target="_top" xlink:title="An AudioSource which takes some float audio data as an input.">
<polygon fill="white" stroke="#666666" points="490,-93 348,-93 348,-74 490,-74 490,-93"/>
<text text-anchor="middle" x="419" y="-81" font-family="Helvetica,sans-Serif" font-size="10.00">yup::MemoryAudioSource</text>
</a>
</g>
</g>
<!-- Node5&#45;&gt;Node8 -->
<g id="edge7_Node000005_Node000008" class="edge">
<title>Node5&#45;&gt;Node8</title>
<g id="a_edge7_Node000005_Node000008"><a xlink:title=" ">
<path fill="none" stroke="#63b8ff" d="M284.37,-109.05C311.19,-103.92 342.46,-97.94 368,-93.06"/>
<polygon fill="#63b8ff" stroke="#63b8ff" points="283.5,-105.66 274.33,-110.97 284.81,-112.53 283.5,-105.66"/>
</a>
</g>
</g>
</g>
</svg>
