<?xml version="1.0" encoding="UTF-8" standalone="no"?>
<!DOCTYPE svg PUBLIC "-//W3C//DTD SVG 1.1//EN"
 "http://www.w3.org/Graphics/SVG/1.1/DTD/svg11.dtd">
<!-- Generated by graphviz version 2.43.0 (0)
 -->
<!-- Title: yup::CallbackMessage Pages: 1 -->
<svg width="170pt" height="148pt"
 viewBox="0.00 0.00 170.00 148.00" xmlns="http://www.w3.org/2000/svg" xmlns:xlink="http://www.w3.org/1999/xlink">
<g id="graph0" class="graph" transform="scale(1 1) rotate(0) translate(4 144)">
<title>yup::CallbackMessage</title>
<!-- Node1 -->
<g id="Node000001" class="node">
<title>Node1</title>
<g id="a_Node000001"><a xlink:title="A message that invokes a callback method when it gets delivered.">
<polygon fill="#999999" stroke="#666666" points="144,-19 18,-19 18,0 144,0 144,-19"/>
<text text-anchor="middle" x="81" y="-7" font-family="Helvetica,sans-Serif" font-size="10.00">yup::CallbackMessage</text>
</a>
</g>
</g>
<!-- Node2 -->
<g id="Node000002" class="node">
<title>Node2</title>
<g id="a_Node000002"><a xlink:href="classyup_1_1MessageManager_1_1MessageBase.html" target="_top" xlink:title="Internal class used as the base class for all message objects.">
<polygon fill="white" stroke="#666666" points="144.5,-85 17.5,-85 17.5,-55 144.5,-55 144.5,-85"/>
<text text-anchor="start" x="25.5" y="-73" font-family="Helvetica,sans-Serif" font-size="10.00">yup::MessageManager</text>
<text text-anchor="middle" x="81" y="-62" font-family="Helvetica,sans-Serif" font-size="10.00">::MessageBase</text>
</a>
</g>
</g>
<!-- Node2&#45;&gt;Node1 -->
<g id="edge1_Node000001_Node000002" class="edge">
<title>Node2&#45;&gt;Node1</title>
<g id="a_edge1_Node000001_Node000002"><a xlink:title=" ">
<path fill="none" stroke="#63b8ff" d="M81,-44.75C81,-35.72 81,-26.03 81,-19.27"/>
<polygon fill="#63b8ff" stroke="#63b8ff" points="77.5,-44.84 81,-54.84 84.5,-44.84 77.5,-44.84"/>
</a>
</g>
</g>
<!-- Node3 -->
<g id="Node000003" class="node">
<title>Node3</title>
<g id="a_Node000003"><a xlink:href="classyup_1_1ReferenceCountedObject.html" target="_top" xlink:title="A base class which provides methods for reference&#45;counting.">
<polygon fill="white" stroke="#666666" points="162,-140 0,-140 0,-121 162,-121 162,-140"/>
<text text-anchor="middle" x="81" y="-128" font-family="Helvetica,sans-Serif" font-size="10.00">yup::ReferenceCountedObject</text>
</a>
</g>
</g>
<!-- Node3&#45;&gt;Node2 -->
<g id="edge2_Node000002_Node000003" class="edge">
<title>Node3&#45;&gt;Node2</title>
<g id="a_edge2_Node000002_Node000003"><a xlink:title=" ">
<path fill="none" stroke="#63b8ff" d="M81,-110.65C81,-102.36 81,-92.78 81,-85.11"/>
<polygon fill="#63b8ff" stroke="#63b8ff" points="77.5,-110.87 81,-120.87 84.5,-110.87 77.5,-110.87"/>
</a>
</g>
</g>
</g>
</svg>
