<?xml version="1.0" encoding="UTF-8" standalone="no"?>
<!DOCTYPE svg PUBLIC "-//W3C//DTD SVG 1.1//EN"
 "http://www.w3.org/Graphics/SVG/1.1/DTD/svg11.dtd">
<!-- Generated by graphviz version 2.43.0 (0)
 -->
<!-- Title: yup::Thread Pages: 1 -->
<svg width="285pt" height="210pt"
 viewBox="0.00 0.00 285.00 209.50" xmlns="http://www.w3.org/2000/svg" xmlns:xlink="http://www.w3.org/1999/xlink">
<g id="graph0" class="graph" transform="scale(1 1) rotate(0) translate(4 205.5)">
<title>yup::Thread</title>
<!-- Node1 -->
<g id="Node000001" class="node">
<title>Node1</title>
<g id="a_Node000001"><a xlink:title="Encapsulates a thread.">
<polygon fill="#999999" stroke="#666666" points="74,-110 0,-110 0,-91 74,-91 74,-110"/>
<text text-anchor="middle" x="37" y="-98" font-family="Helvetica,sans-Serif" font-size="10.00">yup::Thread</text>
</a>
</g>
</g>
<!-- Node2 -->
<g id="Node000002" class="node">
<title>Node2</title>
<g id="a_Node000002"><a xlink:href="classyup_1_1InterprocessConnectionServer.html" target="_top" xlink:title="An object that waits for client sockets to connect to a port on this host, and creates InterprocessCo...">
<polygon fill="white" stroke="#666666" points="271,-201.5 116,-201.5 116,-171.5 271,-171.5 271,-201.5"/>
<text text-anchor="start" x="124" y="-189.5" font-family="Helvetica,sans-Serif" font-size="10.00">yup::InterprocessConnection</text>
<text text-anchor="middle" x="193.5" y="-178.5" font-family="Helvetica,sans-Serif" font-size="10.00">Server</text>
</a>
</g>
</g>
<!-- Node1&#45;&gt;Node2 -->
<g id="edge1_Node000001_Node000002" class="edge">
<title>Node1&#45;&gt;Node2</title>
<g id="a_edge1_Node000001_Node000002"><a xlink:title=" ">
<path fill="none" stroke="#8b1a1a" d="M53.95,-117.85C67.61,-131.75 88.42,-150.8 110,-162.5 116.29,-165.91 123.13,-168.89 130.08,-171.48"/>
<polygon fill="#8b1a1a" stroke="#8b1a1a" points="56.23,-115.17 46.79,-110.36 51.17,-120.01 56.23,-115.17"/>
</a>
</g>
</g>
<!-- Node3 -->
<g id="Node000003" class="node">
<title>Node3</title>
<g id="a_Node000003"><a xlink:href="classyup_1_1MidiOutput.html" target="_top" xlink:title="Represents a midi output device.">
<polygon fill="white" stroke="#666666" points="241,-153 146,-153 146,-134 241,-134 241,-153"/>
<text text-anchor="middle" x="193.5" y="-141" font-family="Helvetica,sans-Serif" font-size="10.00">yup::MidiOutput</text>
</a>
</g>
</g>
<!-- Node1&#45;&gt;Node3 -->
<g id="edge2_Node000001_Node000003" class="edge">
<title>Node1&#45;&gt;Node3</title>
<g id="a_edge2_Node000001_Node000003"><a xlink:title=" ">
<path fill="none" stroke="#8b1a1a" d="M74.12,-113.29C85.53,-117.13 98.23,-121.19 110,-124.5 122.03,-127.88 135.16,-131.11 147.34,-133.92"/>
<polygon fill="#8b1a1a" stroke="#8b1a1a" points="75.08,-109.92 64.48,-110 72.82,-116.54 75.08,-109.92"/>
</a>
</g>
</g>
<!-- Node4 -->
<g id="Node000004" class="node">
<title>Node4</title>
<g id="a_Node000004"><a xlink:href="structyup_1_1NetworkServiceDiscovery_1_1Advertiser.html" target="_top" xlink:title="An object which runs a thread to repeatedly broadcast the existence of a discoverable service.">
<polygon fill="white" stroke="#666666" points="277,-115.5 110,-115.5 110,-85.5 277,-85.5 277,-115.5"/>
<text text-anchor="start" x="118" y="-103.5" font-family="Helvetica,sans-Serif" font-size="10.00">yup::NetworkServiceDiscovery</text>
<text text-anchor="middle" x="193.5" y="-92.5" font-family="Helvetica,sans-Serif" font-size="10.00">::Advertiser</text>
</a>
</g>
</g>
<!-- Node1&#45;&gt;Node4 -->
<g id="edge3_Node000001_Node000004" class="edge">
<title>Node1&#45;&gt;Node4</title>
<g id="a_edge3_Node000001_Node000004"><a xlink:title=" ">
<path fill="none" stroke="#8b1a1a" d="M84.47,-100.5C92.53,-100.5 101.12,-100.5 109.8,-100.5"/>
<polygon fill="#8b1a1a" stroke="#8b1a1a" points="84.22,-97 74.22,-100.5 84.22,-104 84.22,-97"/>
</a>
</g>
</g>
<!-- Node5 -->
<g id="Node000005" class="node">
<title>Node5</title>
<g id="a_Node000005"><a xlink:href="structyup_1_1NetworkServiceDiscovery_1_1AvailableServiceList.html" target="_top" xlink:title="Watches the network for broadcasts from Advertiser objects, and keeps a list of all the currently act...">
<polygon fill="white" stroke="#666666" points="277,-67.5 110,-67.5 110,-37.5 277,-37.5 277,-67.5"/>
<text text-anchor="start" x="118" y="-55.5" font-family="Helvetica,sans-Serif" font-size="10.00">yup::NetworkServiceDiscovery</text>
<text text-anchor="middle" x="193.5" y="-44.5" font-family="Helvetica,sans-Serif" font-size="10.00">::AvailableServiceList</text>
</a>
</g>
</g>
<!-- Node1&#45;&gt;Node5 -->
<g id="edge4_Node000001_Node000005" class="edge">
<title>Node1&#45;&gt;Node5</title>
<g id="a_edge4_Node000001_Node000005"><a xlink:title=" ">
<path fill="none" stroke="#8b1a1a" d="M75.72,-87.62C86.74,-83.94 98.83,-79.99 110,-76.5 119.54,-73.52 129.74,-70.46 139.6,-67.56"/>
<polygon fill="#8b1a1a" stroke="#8b1a1a" points="74.32,-84.4 65.96,-90.9 76.55,-91.03 74.32,-84.4"/>
</a>
</g>
</g>
<!-- Node6 -->
<g id="Node000006" class="node">
<title>Node6</title>
<g id="a_Node000006"><a xlink:href="classyup_1_1TimeSliceThread.html" target="_top" xlink:title="A thread that keeps a list of clients, and calls each one in turn, giving them all a chance to run so...">
<polygon fill="white" stroke="#666666" points="254.5,-19 132.5,-19 132.5,0 254.5,0 254.5,-19"/>
<text text-anchor="middle" x="193.5" y="-7" font-family="Helvetica,sans-Serif" font-size="10.00">yup::TimeSliceThread</text>
</a>
</g>
</g>
<!-- Node1&#45;&gt;Node6 -->
<g id="edge5_Node000001_Node000006" class="edge">
<title>Node1&#45;&gt;Node6</title>
<g id="a_edge5_Node000001_Node000006"><a xlink:title=" ">
<path fill="none" stroke="#63b8ff" d="M51.1,-82.54C64.16,-65.96 85.73,-41.94 110,-28.5 117.07,-24.58 124.91,-21.47 132.87,-19"/>
<polygon fill="#63b8ff" stroke="#63b8ff" points="48.03,-80.79 44.75,-90.87 53.6,-85.03 48.03,-80.79"/>
</a>
</g>
</g>
</g>
</svg>
