<?xml version="1.0" encoding="UTF-8" standalone="no"?>
<!DOCTYPE svg PUBLIC "-//W3C//DTD SVG 1.1//EN"
 "http://www.w3.org/Graphics/SVG/1.1/DTD/svg11.dtd">
<!-- Generated by graphviz version 2.43.0 (0)
 -->
<!-- Title: yup::ChangeBroadcaster Pages: 1 -->
<svg width="318pt" height="82pt"
 viewBox="0.00 0.00 317.50 82.00" xmlns="http://www.w3.org/2000/svg" xmlns:xlink="http://www.w3.org/1999/xlink">
<g id="graph0" class="graph" transform="scale(1 1) rotate(0) translate(4 78)">
<title>yup::ChangeBroadcaster</title>
<!-- Node1 -->
<g id="Node000001" class="node">
<title>Node1</title>
<g id="a_Node000001"><a xlink:title="Holds a list of ChangeListeners, and sends messages to them when instructed.">
<polygon fill="#999999" stroke="#666666" points="222.5,-74 86.5,-74 86.5,-55 222.5,-55 222.5,-74"/>
<text text-anchor="middle" x="154.5" y="-62" font-family="Helvetica,sans-Serif" font-size="10.00">yup::ChangeBroadcaster</text>
</a>
</g>
</g>
<!-- Node2 -->
<g id="Node000002" class="node">
<title>Node2</title>
<g id="a_Node000002"><a xlink:href="classyup_1_1AudioDeviceManager.html" target="_top" xlink:title="Manages the state of some audio and midi i/o devices.">
<polygon fill="white" stroke="#666666" points="145,-19 0,-19 0,0 145,0 145,-19"/>
<text text-anchor="middle" x="72.5" y="-7" font-family="Helvetica,sans-Serif" font-size="10.00">yup::AudioDeviceManager</text>
</a>
</g>
</g>
<!-- Node1&#45;&gt;Node2 -->
<g id="edge1_Node000001_Node000002" class="edge">
<title>Node1&#45;&gt;Node2</title>
<g id="a_edge1_Node000001_Node000002"><a xlink:title=" ">
<path fill="none" stroke="#63b8ff" d="M132.72,-49.42C117.84,-39.81 98.59,-27.37 85.91,-19.17"/>
<polygon fill="#63b8ff" stroke="#63b8ff" points="131.03,-52.5 141.33,-54.98 134.83,-46.62 131.03,-52.5"/>
</a>
</g>
</g>
<!-- Node3 -->
<g id="Node000003" class="node">
<title>Node3</title>
<g id="a_Node000003"><a xlink:href="classyup_1_1AudioTransportSource.html" target="_top" xlink:title="An AudioSource that takes a PositionableAudioSource and allows it to be played, stopped,...">
<polygon fill="white" stroke="#666666" points="309.5,-19 163.5,-19 163.5,0 309.5,0 309.5,-19"/>
<text text-anchor="middle" x="236.5" y="-7" font-family="Helvetica,sans-Serif" font-size="10.00">yup::AudioTransportSource</text>
</a>
</g>
</g>
<!-- Node1&#45;&gt;Node3 -->
<g id="edge2_Node000001_Node000003" class="edge">
<title>Node1&#45;&gt;Node3</title>
<g id="a_edge2_Node000001_Node000003"><a xlink:title=" ">
<path fill="none" stroke="#63b8ff" d="M176.28,-49.42C191.16,-39.81 210.41,-27.37 223.09,-19.17"/>
<polygon fill="#63b8ff" stroke="#63b8ff" points="174.17,-46.62 167.67,-54.98 177.97,-52.5 174.17,-46.62"/>
</a>
</g>
</g>
</g>
</svg>
