<?xml version="1.0" encoding="UTF-8" standalone="no"?>
<!DOCTYPE svg PUBLIC "-//W3C//DTD SVG 1.1//EN"
 "http://www.w3.org/Graphics/SVG/1.1/DTD/svg11.dtd">
<!-- Generated by graphviz version 2.43.0 (0)
 -->
<!-- Title: yup::InputStream Pages: 1 -->
<svg width="304pt" height="224pt"
 viewBox="0.00 0.00 304.00 224.00" xmlns="http://www.w3.org/2000/svg" xmlns:xlink="http://www.w3.org/1999/xlink">
<g id="graph0" class="graph" transform="scale(1 1) rotate(0) translate(4 220)">
<title>yup::InputStream</title>
<!-- Node1 -->
<g id="Node000001" class="node">
<title>Node1</title>
<g id="a_Node000001"><a xlink:title="The base class for streams that read data.">
<polygon fill="#999999" stroke="#666666" points="101,-114 0,-114 0,-95 101,-95 101,-114"/>
<text text-anchor="middle" x="50.5" y="-102" font-family="Helvetica,sans-Serif" font-size="10.00">yup::InputStream</text>
</a>
</g>
</g>
<!-- Node2 -->
<g id="Node000002" class="node">
<title>Node2</title>
<g id="a_Node000002"><a xlink:href="classyup_1_1BufferedInputStream.html" target="_top" xlink:title="Wraps another input stream, and reads from it using an intermediate buffer.">
<polygon fill="white" stroke="#666666" points="287.5,-216 145.5,-216 145.5,-197 287.5,-197 287.5,-216"/>
<text text-anchor="middle" x="216.5" y="-204" font-family="Helvetica,sans-Serif" font-size="10.00">yup::BufferedInputStream</text>
</a>
</g>
</g>
<!-- Node1&#45;&gt;Node2 -->
<g id="edge1_Node000001_Node000002" class="edge">
<title>Node1&#45;&gt;Node2</title>
<g id="a_edge1_Node000001_Node000002"><a xlink:title=" ">
<path fill="none" stroke="#63b8ff" d="M64.4,-122.02C79.58,-141.33 106.61,-171.86 137,-188.5 143.25,-191.92 150.13,-194.7 157.14,-196.95"/>
<polygon fill="#63b8ff" stroke="#63b8ff" points="67.14,-119.84 58.29,-114.03 61.58,-124.1 67.14,-119.84"/>
</a>
</g>
</g>
<!-- Node3 -->
<g id="Node000003" class="node">
<title>Node3</title>
<g id="a_Node000003"><a xlink:href="classyup_1_1FileInputStream.html" target="_top" xlink:title="An input stream that reads from a local file.">
<polygon fill="white" stroke="#666666" points="275.5,-179 157.5,-179 157.5,-160 275.5,-160 275.5,-179"/>
<text text-anchor="middle" x="216.5" y="-167" font-family="Helvetica,sans-Serif" font-size="10.00">yup::FileInputStream</text>
</a>
</g>
</g>
<!-- Node1&#45;&gt;Node3 -->
<g id="edge2_Node000001_Node000003" class="edge">
<title>Node1&#45;&gt;Node3</title>
<g id="a_edge2_Node000001_Node000003"><a xlink:title=" ">
<path fill="none" stroke="#63b8ff" d="M74.96,-119.25C91.72,-129.24 115.08,-142.11 137,-150.5 146.69,-154.21 157.34,-157.36 167.58,-159.97"/>
<polygon fill="#63b8ff" stroke="#63b8ff" points="76.75,-116.24 66.38,-114.04 73.11,-122.22 76.75,-116.24"/>
</a>
</g>
</g>
<!-- Node4 -->
<g id="Node000004" class="node">
<title>Node4</title>
<g id="a_Node000004"><a xlink:href="classyup_1_1GZIPDecompressorInputStream.html" target="_top" xlink:title="This stream will decompress a source&#45;stream using zlib.">
<polygon fill="white" stroke="#666666" points="296,-141.5 137,-141.5 137,-111.5 296,-111.5 296,-141.5"/>
<text text-anchor="start" x="145" y="-129.5" font-family="Helvetica,sans-Serif" font-size="10.00">yup::GZIPDecompressorInput</text>
<text text-anchor="middle" x="216.5" y="-118.5" font-family="Helvetica,sans-Serif" font-size="10.00">Stream</text>
</a>
</g>
</g>
<!-- Node1&#45;&gt;Node4 -->
<g id="edge3_Node000001_Node000004" class="edge">
<title>Node1&#45;&gt;Node4</title>
<g id="a_edge3_Node000001_Node000004"><a xlink:title=" ">
<path fill="none" stroke="#63b8ff" d="M111.18,-112.51C119.56,-113.63 128.28,-114.8 136.94,-115.96"/>
<polygon fill="#63b8ff" stroke="#63b8ff" points="111.53,-109.02 101.15,-111.16 110.6,-115.96 111.53,-109.02"/>
</a>
</g>
</g>
<!-- Node5 -->
<g id="Node000005" class="node">
<title>Node5</title>
<g id="a_Node000005"><a xlink:href="classyup_1_1MemoryInputStream.html" target="_top" xlink:title="Allows a block of data to be accessed as a stream.">
<polygon fill="white" stroke="#666666" points="287,-93 146,-93 146,-74 287,-74 287,-93"/>
<text text-anchor="middle" x="216.5" y="-81" font-family="Helvetica,sans-Serif" font-size="10.00">yup::MemoryInputStream</text>
</a>
</g>
</g>
<!-- Node1&#45;&gt;Node5 -->
<g id="edge4_Node000001_Node000005" class="edge">
<title>Node1&#45;&gt;Node5</title>
<g id="a_edge4_Node000001_Node000005"><a xlink:title=" ">
<path fill="none" stroke="#63b8ff" d="M111.25,-96.85C122.46,-95.41 134.27,-93.9 145.75,-92.43"/>
<polygon fill="#63b8ff" stroke="#63b8ff" points="110.62,-93.4 101.15,-98.14 111.51,-100.34 110.62,-93.4"/>
</a>
</g>
</g>
<!-- Node6 -->
<g id="Node000006" class="node">
<title>Node6</title>
<g id="a_Node000006"><a xlink:href="classyup_1_1SubregionStream.html" target="_top" xlink:title="Wraps another input stream, and reads from a specific part of it.">
<polygon fill="white" stroke="#666666" points="279,-56 154,-56 154,-37 279,-37 279,-56"/>
<text text-anchor="middle" x="216.5" y="-44" font-family="Helvetica,sans-Serif" font-size="10.00">yup::SubregionStream</text>
</a>
</g>
</g>
<!-- Node1&#45;&gt;Node6 -->
<g id="edge5_Node000001_Node000006" class="edge">
<title>Node1&#45;&gt;Node6</title>
<g id="a_edge5_Node000001_Node000006"><a xlink:title=" ">
<path fill="none" stroke="#63b8ff" d="M78.84,-90.41C95.36,-82.31 117.02,-72.4 137,-65.5 147.47,-61.88 158.95,-58.69 169.83,-56"/>
<polygon fill="#63b8ff" stroke="#63b8ff" points="77.15,-87.34 69.76,-94.94 80.27,-93.61 77.15,-87.34"/>
</a>
</g>
</g>
<!-- Node7 -->
<g id="Node000007" class="node">
<title>Node7</title>
<g id="a_Node000007"><a xlink:href="classyup_1_1WebInputStream.html" target="_top" xlink:title="An InputStream which can be used to read from a given URL.">
<polygon fill="white" stroke="#666666" points="277.5,-19 155.5,-19 155.5,0 277.5,0 277.5,-19"/>
<text text-anchor="middle" x="216.5" y="-7" font-family="Helvetica,sans-Serif" font-size="10.00">yup::WebInputStream</text>
</a>
</g>
</g>
<!-- Node1&#45;&gt;Node7 -->
<g id="edge6_Node000001_Node000007" class="edge">
<title>Node1&#45;&gt;Node7</title>
<g id="a_edge6_Node000001_Node000007"><a xlink:title=" ">
<path fill="none" stroke="#63b8ff" d="M66.21,-87.18C81.97,-69.75 108.57,-43.38 137,-28.5 144.33,-24.66 152.45,-21.59 160.61,-19.12"/>
<polygon fill="#63b8ff" stroke="#63b8ff" points="63.37,-85.11 59.39,-94.93 68.63,-89.73 63.37,-85.11"/>
</a>
</g>
</g>
</g>
</svg>
