<?xml version="1.0" encoding="UTF-8" standalone="no"?>
<!DOCTYPE svg PUBLIC "-//W3C//DTD SVG 1.1//EN"
 "http://www.w3.org/Graphics/SVG/1.1/DTD/svg11.dtd">
<!-- Generated by graphviz version 2.43.0 (0)
 -->
<!-- Title: yup::MessageManager::MessageBase Pages: 1 -->
<svg width="236pt" height="148pt"
 viewBox="0.00 0.00 236.00 148.00" xmlns="http://www.w3.org/2000/svg" xmlns:xlink="http://www.w3.org/1999/xlink">
<g id="graph0" class="graph" transform="scale(1 1) rotate(0) translate(4 144)">
<title>yup::MessageManager::MessageBase</title>
<!-- Node1 -->
<g id="Node000001" class="node">
<title>Node1</title>
<g id="a_Node000001"><a xlink:title="Internal class used as the base class for all message objects.">
<polygon fill="#999999" stroke="#666666" points="187.5,-85 60.5,-85 60.5,-55 187.5,-55 187.5,-85"/>
<text text-anchor="start" x="68.5" y="-73" font-family="Helvetica,sans-Serif" font-size="10.00">yup::MessageManager</text>
<text text-anchor="middle" x="124" y="-62" font-family="Helvetica,sans-Serif" font-size="10.00">::MessageBase</text>
</a>
</g>
</g>
<!-- Node3 -->
<g id="Node000003" class="node">
<title>Node3</title>
<g id="a_Node000003"><a xlink:href="classyup_1_1CallbackMessage.html" target="_top" xlink:title="A message that invokes a callback method when it gets delivered.">
<polygon fill="white" stroke="#666666" points="126,-19 0,-19 0,0 126,0 126,-19"/>
<text text-anchor="middle" x="63" y="-7" font-family="Helvetica,sans-Serif" font-size="10.00">yup::CallbackMessage</text>
</a>
</g>
</g>
<!-- Node1&#45;&gt;Node3 -->
<g id="edge2_Node000001_Node000003" class="edge">
<title>Node1&#45;&gt;Node3</title>
<g id="a_edge2_Node000001_Node000003"><a xlink:title=" ">
<path fill="none" stroke="#63b8ff" d="M101.76,-47.67C91.53,-37.86 79.95,-26.76 72.14,-19.27"/>
<polygon fill="#63b8ff" stroke="#63b8ff" points="99.59,-50.44 109.23,-54.84 104.44,-45.39 99.59,-50.44"/>
</a>
</g>
</g>
<!-- Node4 -->
<g id="Node000004" class="node">
<title>Node4</title>
<g id="a_Node000004"><a xlink:href="classyup_1_1Message.html" target="_top" xlink:title="The base class for objects that can be sent to a MessageListener.">
<polygon fill="white" stroke="#666666" points="228,-19 144,-19 144,0 228,0 228,-19"/>
<text text-anchor="middle" x="186" y="-7" font-family="Helvetica,sans-Serif" font-size="10.00">yup::Message</text>
</a>
</g>
</g>
<!-- Node1&#45;&gt;Node4 -->
<g id="edge3_Node000001_Node000004" class="edge">
<title>Node1&#45;&gt;Node4</title>
<g id="a_edge3_Node000001_Node000004"><a xlink:title=" ">
<path fill="none" stroke="#63b8ff" d="M146.3,-47.96C156.78,-38.07 168.69,-26.83 176.71,-19.27"/>
<polygon fill="#63b8ff" stroke="#63b8ff" points="143.88,-45.43 139.01,-54.84 148.68,-50.52 143.88,-45.43"/>
</a>
</g>
</g>
<!-- Node2 -->
<g id="Node000002" class="node">
<title>Node2</title>
<g id="a_Node000002"><a xlink:href="classyup_1_1ReferenceCountedObject.html" target="_top" xlink:title="A base class which provides methods for reference&#45;counting.">
<polygon fill="white" stroke="#666666" points="205,-140 43,-140 43,-121 205,-121 205,-140"/>
<text text-anchor="middle" x="124" y="-128" font-family="Helvetica,sans-Serif" font-size="10.00">yup::ReferenceCountedObject</text>
</a>
</g>
</g>
<!-- Node2&#45;&gt;Node1 -->
<g id="edge1_Node000001_Node000002" class="edge">
<title>Node2&#45;&gt;Node1</title>
<g id="a_edge1_Node000001_Node000002"><a xlink:title=" ">
<path fill="none" stroke="#63b8ff" d="M124,-110.65C124,-102.36 124,-92.78 124,-85.11"/>
<polygon fill="#63b8ff" stroke="#63b8ff" points="120.5,-110.87 124,-120.87 127.5,-110.87 120.5,-110.87"/>
</a>
</g>
</g>
</g>
</svg>
