<?xml version="1.0" encoding="UTF-8" standalone="no"?>
<!DOCTYPE svg PUBLIC "-//W3C//DTD SVG 1.1//EN"
 "http://www.w3.org/Graphics/SVG/1.1/DTD/svg11.dtd">
<!-- Generated by graphviz version 2.43.0 (0)
 -->
<!-- Title: yup::AudioTransportSource Pages: 1 -->
<svg width="324pt" height="137pt"
 viewBox="0.00 0.00 323.50 137.00" xmlns="http://www.w3.org/2000/svg" xmlns:xlink="http://www.w3.org/1999/xlink">
<g id="graph0" class="graph" transform="scale(1 1) rotate(0) translate(4 133)">
<title>yup::AudioTransportSource</title>
<!-- Node1 -->
<g id="Node000001" class="node">
<title>Node1</title>
<g id="a_Node000001"><a xlink:title="An AudioSource that takes a PositionableAudioSource and allows it to be played, stopped,...">
<polygon fill="#999999" stroke="#666666" points="236.5,-19 90.5,-19 90.5,0 236.5,0 236.5,-19"/>
<text text-anchor="middle" x="163.5" y="-7" font-family="Helvetica,sans-Serif" font-size="10.00">yup::AudioTransportSource</text>
</a>
</g>
</g>
<!-- Node2 -->
<g id="Node000002" class="node">
<title>Node2</title>
<g id="a_Node000002"><a xlink:href="classyup_1_1PositionableAudioSource.html" target="_top" xlink:title="A type of AudioSource which can be repositioned.">
<polygon fill="white" stroke="#666666" points="161,-74 0,-74 0,-55 161,-55 161,-74"/>
<text text-anchor="middle" x="80.5" y="-62" font-family="Helvetica,sans-Serif" font-size="10.00">yup::PositionableAudioSource</text>
</a>
</g>
</g>
<!-- Node2&#45;&gt;Node1 -->
<g id="edge1_Node000001_Node000002" class="edge">
<title>Node2&#45;&gt;Node1</title>
<g id="a_edge1_Node000001_Node000002"><a xlink:title=" ">
<path fill="none" stroke="#63b8ff" d="M102.54,-49.42C117.61,-39.81 137.09,-27.37 149.92,-19.17"/>
<polygon fill="#63b8ff" stroke="#63b8ff" points="100.38,-46.65 93.84,-54.98 104.15,-52.55 100.38,-46.65"/>
</a>
</g>
</g>
<!-- Node3 -->
<g id="Node000003" class="node">
<title>Node3</title>
<g id="a_Node000003"><a xlink:href="classyup_1_1AudioSource.html" target="_top" xlink:title="Base class for objects that can produce a continuous stream of audio.">
<polygon fill="white" stroke="#666666" points="131,-129 30,-129 30,-110 131,-110 131,-129"/>
<text text-anchor="middle" x="80.5" y="-117" font-family="Helvetica,sans-Serif" font-size="10.00">yup::AudioSource</text>
</a>
</g>
</g>
<!-- Node3&#45;&gt;Node2 -->
<g id="edge2_Node000002_Node000003" class="edge">
<title>Node3&#45;&gt;Node2</title>
<g id="a_edge2_Node000002_Node000003"><a xlink:title=" ">
<path fill="none" stroke="#63b8ff" d="M80.5,-99.66C80.5,-90.93 80.5,-80.99 80.5,-74.09"/>
<polygon fill="#63b8ff" stroke="#63b8ff" points="77,-99.75 80.5,-109.75 84,-99.75 77,-99.75"/>
</a>
</g>
</g>
<!-- Node4 -->
<g id="Node000004" class="node">
<title>Node4</title>
<g id="a_Node000004"><a xlink:href="classyup_1_1ChangeBroadcaster.html" target="_top" xlink:title="Holds a list of ChangeListeners, and sends messages to them when instructed.">
<polygon fill="white" stroke="#666666" points="315.5,-74 179.5,-74 179.5,-55 315.5,-55 315.5,-74"/>
<text text-anchor="middle" x="247.5" y="-62" font-family="Helvetica,sans-Serif" font-size="10.00">yup::ChangeBroadcaster</text>
</a>
</g>
</g>
<!-- Node4&#45;&gt;Node1 -->
<g id="edge3_Node000001_Node000004" class="edge">
<title>Node4&#45;&gt;Node1</title>
<g id="a_edge3_Node000001_Node000004"><a xlink:title=" ">
<path fill="none" stroke="#63b8ff" d="M225.19,-49.42C209.95,-39.81 190.23,-27.37 177.24,-19.17"/>
<polygon fill="#63b8ff" stroke="#63b8ff" points="223.68,-52.61 234,-54.98 227.41,-46.69 223.68,-52.61"/>
</a>
</g>
</g>
</g>
</svg>
