<?xml version="1.0" encoding="UTF-8" standalone="no"?>
<!DOCTYPE svg PUBLIC "-//W3C//DTD SVG 1.1//EN"
 "http://www.w3.org/Graphics/SVG/1.1/DTD/svg11.dtd">
<!-- Generated by graphviz version 2.43.0 (0)
 -->
<!-- Title: yup::ReferenceCountedObject Pages: 1 -->
<svg width="513pt" height="458pt"
 viewBox="0.00 0.00 513.00 458.00" xmlns="http://www.w3.org/2000/svg" xmlns:xlink="http://www.w3.org/1999/xlink">
<g id="graph0" class="graph" transform="scale(1 1) rotate(0) translate(4 454)">
<title>yup::ReferenceCountedObject</title>
<!-- Node1 -->
<g id="Node000001" class="node">
<title>Node1</title>
<g id="a_Node000001"><a xlink:title="A base class which provides methods for reference&#45;counting.">
<polygon fill="#999999" stroke="#666666" points="162,-234 0,-234 0,-215 162,-215 162,-234"/>
<text text-anchor="middle" x="81" y="-222" font-family="Helvetica,sans-Serif" font-size="10.00">yup::ReferenceCountedObject</text>
</a>
</g>
</g>
<!-- Node2 -->
<g id="Node000002" class="node">
<title>Node2</title>
<g id="a_Node000002"><a xlink:href="classyup_1_1ApplicationTheme.html" target="_top" xlink:title="Manages the application&#45;wide theme settings.">
<polygon fill="white" stroke="#666666" points="335,-450 206,-450 206,-431 335,-431 335,-450"/>
<text text-anchor="middle" x="270.5" y="-438" font-family="Helvetica,sans-Serif" font-size="10.00">yup::ApplicationTheme</text>
</a>
</g>
</g>
<!-- Node1&#45;&gt;Node2 -->
<g id="edge1_Node000001_Node000002" class="edge">
<title>Node1&#45;&gt;Node2</title>
<g id="a_edge1_Node000001_Node000002"><a xlink:title=" ">
<path fill="none" stroke="#63b8ff" d="M87.81,-243.82C100.77,-283.49 135.87,-374.35 198,-421.5 203.12,-425.38 208.96,-428.47 215.05,-430.93"/>
<polygon fill="#63b8ff" stroke="#63b8ff" points="91.08,-242.56 84.74,-234.07 84.41,-244.66 91.08,-242.56"/>
</a>
</g>
</g>
<!-- Node3 -->
<g id="Node000003" class="node">
<title>Node3</title>
<g id="a_Node000003"><a xlink:href="structyup_1_1AudioDeviceManager_1_1LevelMeter.html" target="_top" xlink:title="A simple reference&#45;counted struct that holds a level&#45;meter value that can be read using getCurrentLev...">
<polygon fill="white" stroke="#666666" points="343,-412.5 198,-412.5 198,-382.5 343,-382.5 343,-412.5"/>
<text text-anchor="start" x="206" y="-400.5" font-family="Helvetica,sans-Serif" font-size="10.00">yup::AudioDeviceManager</text>
<text text-anchor="middle" x="270.5" y="-389.5" font-family="Helvetica,sans-Serif" font-size="10.00">::LevelMeter</text>
</a>
</g>
</g>
<!-- Node1&#45;&gt;Node3 -->
<g id="edge2_Node000001_Node000003" class="edge">
<title>Node1&#45;&gt;Node3</title>
<g id="a_edge2_Node000001_Node000003"><a xlink:title=" ">
<path fill="none" stroke="#63b8ff" d="M91.65,-243.07C108.86,-274.42 147.8,-337.92 198,-373.5 202.81,-376.91 208.13,-379.86 213.65,-382.41"/>
<polygon fill="#63b8ff" stroke="#63b8ff" points="94.65,-241.25 86.84,-234.09 88.48,-244.56 94.65,-241.25"/>
</a>
</g>
</g>
<!-- Node4 -->
<g id="Node000004" class="node">
<title>Node4</title>
<g id="a_Node000004"><a xlink:href="classyup_1_1AudioParameter.html" target="_top" xlink:title="A flexible, thread&#45;safe parameter class with support for custom mapping, string conversion,...">
<polygon fill="white" stroke="#666666" points="330,-364 211,-364 211,-345 330,-345 330,-364"/>
<text text-anchor="middle" x="270.5" y="-352" font-family="Helvetica,sans-Serif" font-size="10.00">yup::AudioParameter</text>
</a>
</g>
</g>
<!-- Node1&#45;&gt;Node4 -->
<g id="edge3_Node000001_Node000004" class="edge">
<title>Node1&#45;&gt;Node4</title>
<g id="a_edge3_Node000001_Node000004"><a xlink:title=" ">
<path fill="none" stroke="#63b8ff" d="M95.28,-242.19C114.93,-267.09 154.2,-312.16 198,-336.5 204.15,-339.92 210.96,-342.7 217.86,-344.96"/>
<polygon fill="#63b8ff" stroke="#63b8ff" points="97.84,-239.78 88.95,-234 92.3,-244.06 97.84,-239.78"/>
</a>
</g>
</g>
<!-- Node5 -->
<g id="Node000005" class="node">
<title>Node5</title>
<g id="a_Node000005"><a xlink:href="classyup_1_1BitmapData.html" target="_top" xlink:title="Represents bitmap pixel data with accessors.">
<polygon fill="white" stroke="#666666" points="320,-327 221,-327 221,-308 320,-308 320,-327"/>
<text text-anchor="middle" x="270.5" y="-315" font-family="Helvetica,sans-Serif" font-size="10.00">yup::BitmapData</text>
</a>
</g>
</g>
<!-- Node1&#45;&gt;Node5 -->
<g id="edge4_Node000001_Node000005" class="edge">
<title>Node1&#45;&gt;Node5</title>
<g id="a_edge4_Node000001_Node000005"><a xlink:title=" ">
<path fill="none" stroke="#63b8ff" d="M101.76,-240.18C123.98,-257.09 161.7,-283.71 198,-299.5 205.63,-302.82 213.99,-305.61 222.23,-307.93"/>
<polygon fill="#63b8ff" stroke="#63b8ff" points="103.83,-237.36 93.78,-234.01 99.55,-242.9 103.83,-237.36"/>
</a>
</g>
</g>
<!-- Node6 -->
<g id="Node000006" class="node">
<title>Node6</title>
<g id="a_Node000006"><a xlink:href="classyup_1_1ComponentStyle.html" target="_top" xlink:title="The ComponentStyle class is the base class for all components styles.">
<polygon fill="white" stroke="#666666" points="331.5,-290 209.5,-290 209.5,-271 331.5,-271 331.5,-290"/>
<text text-anchor="middle" x="270.5" y="-278" font-family="Helvetica,sans-Serif" font-size="10.00">yup::ComponentStyle</text>
</a>
</g>
</g>
<!-- Node1&#45;&gt;Node6 -->
<g id="edge5_Node000001_Node000006" class="edge">
<title>Node1&#45;&gt;Node6</title>
<g id="a_edge5_Node000001_Node000006"><a xlink:title=" ">
<path fill="none" stroke="#63b8ff" d="M119.06,-237.37C141.73,-245.07 171.4,-254.81 198,-262.5 208.21,-265.45 219.31,-268.38 229.66,-270.99"/>
<polygon fill="#63b8ff" stroke="#63b8ff" points="120.08,-234.02 109.49,-234.11 117.82,-240.65 120.08,-234.02"/>
</a>
</g>
</g>
<!-- Node7 -->
<g id="Node000007" class="node">
<title>Node7</title>
<g id="a_Node000007"><a xlink:href="classyup_1_1DynamicObject.html" target="_top" xlink:title="Represents a dynamically implemented object.">
<polygon fill="white" stroke="#666666" points="328.5,-253 212.5,-253 212.5,-234 328.5,-234 328.5,-253"/>
<text text-anchor="middle" x="270.5" y="-241" font-family="Helvetica,sans-Serif" font-size="10.00">yup::DynamicObject</text>
</a>
</g>
</g>
<!-- Node1&#45;&gt;Node7 -->
<g id="edge6_Node000001_Node000007" class="edge">
<title>Node1&#45;&gt;Node7</title>
<g id="a_edge6_Node000001_Node000007"><a xlink:title=" ">
<path fill="none" stroke="#63b8ff" d="M172.03,-233.62C185.77,-235.01 199.61,-236.42 212.38,-237.71"/>
<polygon fill="#63b8ff" stroke="#63b8ff" points="172.36,-230.14 162.06,-232.61 171.66,-237.1 172.36,-230.14"/>
</a>
</g>
</g>
<!-- Node8 -->
<g id="Node000008" class="node">
<title>Node8</title>
<g id="a_Node000008"><a xlink:href="classyup_1_1FileChooser.html" target="_top" xlink:title="A cross&#45;platform file chooser dialog that allows users to select files or directories.">
<polygon fill="white" stroke="#666666" points="319.5,-216 221.5,-216 221.5,-197 319.5,-197 319.5,-216"/>
<text text-anchor="middle" x="270.5" y="-204" font-family="Helvetica,sans-Serif" font-size="10.00">yup::FileChooser</text>
</a>
</g>
</g>
<!-- Node1&#45;&gt;Node8 -->
<g id="edge7_Node000001_Node000008" class="edge">
<title>Node1&#45;&gt;Node8</title>
<g id="a_edge7_Node000001_Node000008"><a xlink:title=" ">
<path fill="none" stroke="#63b8ff" d="M172.06,-215.85C189.1,-214.22 206.3,-212.57 221.41,-211.12"/>
<polygon fill="#63b8ff" stroke="#63b8ff" points="171.68,-212.37 162.06,-216.81 172.35,-219.34 171.68,-212.37"/>
</a>
</g>
</g>
<!-- Node9 -->
<g id="Node000009" class="node">
<title>Node9</title>
<g id="a_Node000009"><a xlink:href="classyup_1_1MessageManager_1_1MessageBase.html" target="_top" xlink:title="Internal class used as the base class for all message objects.">
<polygon fill="white" stroke="#666666" points="334,-178.5 207,-178.5 207,-148.5 334,-148.5 334,-178.5"/>
<text text-anchor="start" x="215" y="-166.5" font-family="Helvetica,sans-Serif" font-size="10.00">yup::MessageManager</text>
<text text-anchor="middle" x="270.5" y="-155.5" font-family="Helvetica,sans-Serif" font-size="10.00">::MessageBase</text>
</a>
</g>
</g>
<!-- Node1&#45;&gt;Node9 -->
<g id="edge8_Node000001_Node000009" class="edge">
<title>Node1&#45;&gt;Node9</title>
<g id="a_edge8_Node000001_Node000009"><a xlink:title=" ">
<path fill="none" stroke="#63b8ff" d="M120.93,-211.84C150.69,-202.15 191.83,-188.77 223.27,-178.54"/>
<polygon fill="#63b8ff" stroke="#63b8ff" points="119.72,-208.55 111.3,-214.97 121.89,-215.2 119.72,-208.55"/>
</a>
</g>
</g>
<!-- Node12 -->
<g id="Node000012" class="node">
<title>Node12</title>
<g id="a_Node000012"><a xlink:href="classyup_1_1Screen.html" target="_top" xlink:title="Represents a screen device.">
<polygon fill="white" stroke="#666666" points="307.5,-130 233.5,-130 233.5,-111 307.5,-111 307.5,-130"/>
<text text-anchor="middle" x="270.5" y="-118" font-family="Helvetica,sans-Serif" font-size="10.00">yup::Screen</text>
</a>
</g>
</g>
<!-- Node1&#45;&gt;Node12 -->
<g id="edge11_Node000001_Node000012" class="edge">
<title>Node1&#45;&gt;Node12</title>
<g id="a_edge11_Node000001_Node000012"><a xlink:title=" ">
<path fill="none" stroke="#63b8ff" d="M100.04,-207.9C121.75,-188.77 160.02,-157.66 198,-139.5 209.01,-134.24 221.69,-130.26 233.29,-127.35"/>
<polygon fill="#63b8ff" stroke="#63b8ff" points="97.43,-205.54 92.32,-214.82 102.1,-210.76 97.43,-205.54"/>
</a>
</g>
</g>
<!-- Node13 -->
<g id="Node000013" class="node">
<title>Node13</title>
<g id="a_Node000013"><a xlink:href="classyup_1_1SynthesiserSound.html" target="_top" xlink:title="Describes one of the sounds that a Synthesiser can play.">
<polygon fill="white" stroke="#666666" points="334.5,-93 206.5,-93 206.5,-74 334.5,-74 334.5,-93"/>
<text text-anchor="middle" x="270.5" y="-81" font-family="Helvetica,sans-Serif" font-size="10.00">yup::SynthesiserSound</text>
</a>
</g>
</g>
<!-- Node1&#45;&gt;Node13 -->
<g id="edge12_Node000001_Node000013" class="edge">
<title>Node1&#45;&gt;Node13</title>
<g id="a_edge12_Node000001_Node000013"><a xlink:title=" ">
<path fill="none" stroke="#63b8ff" d="M94.05,-206.2C112.91,-179.07 152.03,-128.48 198,-101.5 203.85,-98.07 210.34,-95.28 216.96,-93.03"/>
<polygon fill="#63b8ff" stroke="#63b8ff" points="90.97,-204.51 88.25,-214.74 96.76,-208.44 90.97,-204.51"/>
</a>
</g>
</g>
<!-- Node14 -->
<g id="Node000014" class="node">
<title>Node14</title>
<g id="a_Node000014"><a xlink:href="classyup_1_1UndoManager.html" target="_top" xlink:title="Manages undo and redo functionality for a set of actions.">
<polygon fill="white" stroke="#666666" points="325,-56 216,-56 216,-37 325,-37 325,-56"/>
<text text-anchor="middle" x="270.5" y="-44" font-family="Helvetica,sans-Serif" font-size="10.00">yup::UndoManager</text>
</a>
</g>
</g>
<!-- Node1&#45;&gt;Node14 -->
<g id="edge13_Node000001_Node000014" class="edge">
<title>Node1&#45;&gt;Node14</title>
<g id="a_edge13_Node000001_Node000014"><a xlink:title=" ">
<path fill="none" stroke="#63b8ff" d="M90.31,-205.53C106.14,-171.71 143.93,-101.1 198,-64.5 203.41,-60.84 209.5,-57.92 215.78,-55.6"/>
<polygon fill="#63b8ff" stroke="#63b8ff" points="87.06,-204.22 86.11,-214.77 93.44,-207.12 87.06,-204.22"/>
</a>
</g>
</g>
<!-- Node15 -->
<g id="Node000015" class="node">
<title>Node15</title>
<g id="a_Node000015"><a xlink:href="classyup_1_1UndoableAction.html" target="_top" xlink:title="The base class for all actions in the timeline.">
<polygon fill="white" stroke="#666666" points="329.5,-19 211.5,-19 211.5,0 329.5,0 329.5,-19"/>
<text text-anchor="middle" x="270.5" y="-7" font-family="Helvetica,sans-Serif" font-size="10.00">yup::UndoableAction</text>
</a>
</g>
</g>
<!-- Node1&#45;&gt;Node15 -->
<g id="edge14_Node000001_Node000015" class="edge">
<title>Node1&#45;&gt;Node15</title>
<g id="a_edge14_Node000001_Node000015"><a xlink:title=" ">
<path fill="none" stroke="#63b8ff" d="M87.76,-205.11C100.63,-165.32 135.56,-74.25 198,-27.5 202.51,-24.12 207.58,-21.38 212.89,-19.14"/>
<polygon fill="#63b8ff" stroke="#63b8ff" points="84.35,-204.31 84.72,-214.89 91.03,-206.39 84.35,-204.31"/>
</a>
</g>
</g>
<!-- Node10 -->
<g id="Node000010" class="node">
<title>Node10</title>
<g id="a_Node000010"><a xlink:href="classyup_1_1CallbackMessage.html" target="_top" xlink:title="A message that invokes a callback method when it gets delivered.">
<polygon fill="white" stroke="#666666" points="505,-191 379,-191 379,-172 505,-172 505,-191"/>
<text text-anchor="middle" x="442" y="-179" font-family="Helvetica,sans-Serif" font-size="10.00">yup::CallbackMessage</text>
</a>
</g>
</g>
<!-- Node9&#45;&gt;Node10 -->
<g id="edge9_Node000009_Node000010" class="edge">
<title>Node9&#45;&gt;Node10</title>
<g id="a_edge9_Node000009_Node000010"><a xlink:title=" ">
<path fill="none" stroke="#63b8ff" d="M344.19,-171.22C355.75,-172.45 367.62,-173.71 378.91,-174.91"/>
<polygon fill="#63b8ff" stroke="#63b8ff" points="344.45,-167.73 334.13,-170.15 343.71,-174.69 344.45,-167.73"/>
</a>
</g>
</g>
<!-- Node11 -->
<g id="Node000011" class="node">
<title>Node11</title>
<g id="a_Node000011"><a xlink:href="classyup_1_1Message.html" target="_top" xlink:title="The base class for objects that can be sent to a MessageListener.">
<polygon fill="white" stroke="#666666" points="484,-154 400,-154 400,-135 484,-135 484,-154"/>
<text text-anchor="middle" x="442" y="-142" font-family="Helvetica,sans-Serif" font-size="10.00">yup::Message</text>
</a>
</g>
</g>
<!-- Node9&#45;&gt;Node11 -->
<g id="edge10_Node000009_Node000011" class="edge">
<title>Node9&#45;&gt;Node11</title>
<g id="a_edge10_Node000009_Node000011"><a xlink:title=" ">
<path fill="none" stroke="#63b8ff" d="M344.3,-155.34C363.35,-153.2 383.22,-150.98 399.96,-149.1"/>
<polygon fill="#63b8ff" stroke="#63b8ff" points="343.68,-151.89 334.13,-156.48 344.46,-158.84 343.68,-151.89"/>
</a>
</g>
</g>
</g>
</svg>
