<?xml version="1.0" encoding="UTF-8" standalone="no"?>
<!DOCTYPE svg PUBLIC "-//W3C//DTD SVG 1.1//EN"
 "http://www.w3.org/Graphics/SVG/1.1/DTD/svg11.dtd">
<!-- Generated by graphviz version 2.43.0 (0)
 -->
<!-- Title: yup::OutputStream Pages: 1 -->
<svg width="475pt" height="93pt"
 viewBox="0.00 0.00 474.50 93.00" xmlns="http://www.w3.org/2000/svg" xmlns:xlink="http://www.w3.org/1999/xlink">
<g id="graph0" class="graph" transform="scale(1 1) rotate(0) translate(4 89)">
<title>yup::OutputStream</title>
<!-- Node1 -->
<g id="Node000001" class="node">
<title>Node1</title>
<g id="a_Node000001"><a xlink:title="The base class for streams that write data to some kind of destination.">
<polygon fill="#999999" stroke="#666666" points="276.5,-85 167.5,-85 167.5,-66 276.5,-66 276.5,-85"/>
<text text-anchor="middle" x="222" y="-73" font-family="Helvetica,sans-Serif" font-size="10.00">yup::OutputStream</text>
</a>
</g>
</g>
<!-- Node2 -->
<g id="Node000002" class="node">
<title>Node2</title>
<g id="a_Node000002"><a xlink:href="classyup_1_1FileOutputStream.html" target="_top" xlink:title="An output stream that writes into a local file.">
<polygon fill="white" stroke="#666666" points="126,-24.5 0,-24.5 0,-5.5 126,-5.5 126,-24.5"/>
<text text-anchor="middle" x="63" y="-12.5" font-family="Helvetica,sans-Serif" font-size="10.00">yup::FileOutputStream</text>
</a>
</g>
</g>
<!-- Node1&#45;&gt;Node2 -->
<g id="edge1_Node000001_Node000002" class="edge">
<title>Node1&#45;&gt;Node2</title>
<g id="a_edge1_Node000001_Node000002"><a xlink:title=" ">
<path fill="none" stroke="#63b8ff" d="M189.45,-62.52C158.71,-51.21 113.36,-34.53 86.15,-24.52"/>
<polygon fill="#63b8ff" stroke="#63b8ff" points="188.29,-65.83 198.88,-65.99 190.7,-59.26 188.29,-65.83"/>
</a>
</g>
</g>
<!-- Node3 -->
<g id="Node000003" class="node">
<title>Node3</title>
<g id="a_Node000003"><a xlink:href="classyup_1_1GZIPCompressorOutputStream.html" target="_top" xlink:title="A stream which uses zlib to compress the data written into it.">
<polygon fill="white" stroke="#666666" points="299.5,-30 144.5,-30 144.5,0 299.5,0 299.5,-30"/>
<text text-anchor="start" x="152.5" y="-18" font-family="Helvetica,sans-Serif" font-size="10.00">yup::GZIPCompressorOutput</text>
<text text-anchor="middle" x="222" y="-7" font-family="Helvetica,sans-Serif" font-size="10.00">Stream</text>
</a>
</g>
</g>
<!-- Node1&#45;&gt;Node3 -->
<g id="edge2_Node000001_Node000003" class="edge">
<title>Node1&#45;&gt;Node3</title>
<g id="a_edge2_Node000001_Node000003"><a xlink:title=" ">
<path fill="none" stroke="#63b8ff" d="M222,-55.65C222,-47.36 222,-37.78 222,-30.11"/>
<polygon fill="#63b8ff" stroke="#63b8ff" points="218.5,-55.87 222,-65.87 225.5,-55.87 218.5,-55.87"/>
</a>
</g>
</g>
<!-- Node4 -->
<g id="Node000004" class="node">
<title>Node4</title>
<g id="a_Node000004"><a xlink:href="classyup_1_1MemoryOutputStream.html" target="_top" xlink:title="Writes data to an internal memory buffer, which grows as required.">
<polygon fill="white" stroke="#666666" points="466.5,-24.5 317.5,-24.5 317.5,-5.5 466.5,-5.5 466.5,-24.5"/>
<text text-anchor="middle" x="392" y="-12.5" font-family="Helvetica,sans-Serif" font-size="10.00">yup::MemoryOutputStream</text>
</a>
</g>
</g>
<!-- Node1&#45;&gt;Node4 -->
<g id="edge3_Node000001_Node000004" class="edge">
<title>Node1&#45;&gt;Node4</title>
<g id="a_edge3_Node000001_Node000004"><a xlink:title=" ">
<path fill="none" stroke="#63b8ff" d="M256.37,-62.67C289.25,-51.36 338.03,-34.57 367.25,-24.52"/>
<polygon fill="#63b8ff" stroke="#63b8ff" points="255.04,-59.43 246.72,-65.99 257.31,-66.05 255.04,-59.43"/>
</a>
</g>
</g>
</g>
</svg>
