<?xml version="1.0" encoding="UTF-8" standalone="no"?>
<!DOCTYPE svg PUBLIC "-//W3C//DTD SVG 1.1//EN"
 "http://www.w3.org/Graphics/SVG/1.1/DTD/svg11.dtd">
<!-- Generated by graphviz version 2.43.0 (0)
 -->
<!-- Title: yup::CriticalSection Pages: 1 -->
<svg width="308pt" height="108pt"
 viewBox="0.00 0.00 308.00 108.00" xmlns="http://www.w3.org/2000/svg" xmlns:xlink="http://www.w3.org/1999/xlink">
<g id="graph0" class="graph" transform="scale(1 1) rotate(0) translate(4 104)">
<title>yup::CriticalSection</title>
<!-- Node1 -->
<g id="Node000001" class="node">
<title>Node1</title>
<g id="a_Node000001"><a xlink:title="A re&#45;entrant mutex.">
<polygon fill="#999999" stroke="#666666" points="111,-59 0,-59 0,-40 111,-40 111,-59"/>
<text text-anchor="middle" x="55.5" y="-47" font-family="Helvetica,sans-Serif" font-size="10.00">yup::CriticalSection</text>
</a>
</g>
</g>
<!-- Node2 -->
<g id="Node000002" class="node">
<title>Node2</title>
<g id="a_Node000002"><a xlink:href="classyup_1_1ArrayBase.html" target="_top" xlink:title=" ">
<polygon fill="white" stroke="#666666" points="286,-100 161,-100 161,-59 286,-59 286,-100"/>
<text text-anchor="start" x="169" y="-88" font-family="Helvetica,sans-Serif" font-size="10.00">yup::ArrayBase&lt; yup</text>
<text text-anchor="start" x="169" y="-77" font-family="Helvetica,sans-Serif" font-size="10.00">::Thread::Listener *,</text>
<text text-anchor="middle" x="223.5" y="-66" font-family="Helvetica,sans-Serif" font-size="10.00"> yup::CriticalSection &gt;</text>
</a>
</g>
</g>
<!-- Node1&#45;&gt;Node2 -->
<g id="edge1_Node000001_Node000002" class="edge">
<title>Node1&#45;&gt;Node2</title>
<g id="a_edge1_Node000001_Node000002"><a xlink:title=" ">
<path fill="none" stroke="#63b8ff" d="M119.62,-60.91C133.11,-63.34 147.33,-65.92 160.77,-68.34"/>
<polygon fill="#63b8ff" stroke="#63b8ff" points="119.94,-57.41 109.48,-59.07 118.7,-64.3 119.94,-57.41"/>
</a>
</g>
</g>
<!-- Node3 -->
<g id="Node000003" class="node">
<title>Node3</title>
<g id="a_Node000003"><a xlink:href="classyup_1_1ArrayBase.html" target="_top" xlink:title=" ">
<polygon fill="white" stroke="#666666" points="300,-41 147,-41 147,0 300,0 300,-41"/>
<text text-anchor="start" x="155" y="-29" font-family="Helvetica,sans-Serif" font-size="10.00">yup::ArrayBase&lt; yup</text>
<text text-anchor="start" x="155" y="-18" font-family="Helvetica,sans-Serif" font-size="10.00">::UnitTestRunner::TestResult</text>
<text text-anchor="middle" x="223.5" y="-7" font-family="Helvetica,sans-Serif" font-size="10.00"> *, yup::CriticalSection &gt;</text>
</a>
</g>
</g>
<!-- Node1&#45;&gt;Node3 -->
<g id="edge2_Node000001_Node000003" class="edge">
<title>Node1&#45;&gt;Node3</title>
<g id="a_edge2_Node000001_Node000003"><a xlink:title=" ">
<path fill="none" stroke="#63b8ff" d="M121.32,-38.18C129.64,-36.72 138.22,-35.22 146.7,-33.74"/>
<polygon fill="#63b8ff" stroke="#63b8ff" points="120.56,-34.76 111.31,-39.92 121.77,-41.65 120.56,-34.76"/>
</a>
</g>
</g>
</g>
</svg>
