<?xml version="1.0" encoding="UTF-8" standalone="no"?>
<!DOCTYPE svg PUBLIC "-//W3C//DTD SVG 1.1//EN"
 "http://www.w3.org/Graphics/SVG/1.1/DTD/svg11.dtd">
<!-- Generated by graphviz version 2.43.0 (0)
 -->
<!-- Title: yup::MidiMessageCollector Pages: 1 -->
<svg width="288pt" height="93pt"
 viewBox="0.00 0.00 287.50 93.00" xmlns="http://www.w3.org/2000/svg" xmlns:xlink="http://www.w3.org/1999/xlink">
<g id="graph0" class="graph" transform="scale(1 1) rotate(0) translate(4 89)">
<title>yup::MidiMessageCollector</title>
<!-- Node1 -->
<g id="Node000001" class="node">
<title>Node1</title>
<g id="a_Node000001"><a xlink:title="Collects incoming realtime MIDI messages and turns them into blocks suitable for processing by a bloc...">
<polygon fill="#999999" stroke="#666666" points="215,-19 66,-19 66,0 215,0 215,-19"/>
<text text-anchor="middle" x="140.5" y="-7" font-family="Helvetica,sans-Serif" font-size="10.00">yup::MidiMessageCollector</text>
</a>
</g>
</g>
<!-- Node2 -->
<g id="Node000002" class="node">
<title>Node2</title>
<g id="a_Node000002"><a xlink:href="classyup_1_1MidiKeyboardState_1_1Listener.html" target="_top" xlink:title="Receives events from a MidiKeyboardState object.">
<polygon fill="white" stroke="#666666" points="133,-85 0,-85 0,-55 133,-55 133,-85"/>
<text text-anchor="start" x="8" y="-73" font-family="Helvetica,sans-Serif" font-size="10.00">yup::MidiKeyboardState</text>
<text text-anchor="middle" x="66.5" y="-62" font-family="Helvetica,sans-Serif" font-size="10.00">::Listener</text>
</a>
</g>
</g>
<!-- Node2&#45;&gt;Node1 -->
<g id="edge1_Node000001_Node000002" class="edge">
<title>Node2&#45;&gt;Node1</title>
<g id="a_edge1_Node000001_Node000002"><a xlink:title=" ">
<path fill="none" stroke="#63b8ff" d="M92.39,-48.53C105.07,-38.51 119.65,-26.98 129.41,-19.27"/>
<polygon fill="#63b8ff" stroke="#63b8ff" points="90.09,-45.89 84.41,-54.84 94.43,-51.38 90.09,-45.89"/>
</a>
</g>
</g>
<!-- Node3 -->
<g id="Node000003" class="node">
<title>Node3</title>
<g id="a_Node000003"><a xlink:href="classyup_1_1MidiInputCallback.html" target="_top" xlink:title="Receives incoming messages from a physical MIDI input device.">
<polygon fill="white" stroke="#666666" points="279.5,-79.5 151.5,-79.5 151.5,-60.5 279.5,-60.5 279.5,-79.5"/>
<text text-anchor="middle" x="215.5" y="-67.5" font-family="Helvetica,sans-Serif" font-size="10.00">yup::MidiInputCallback</text>
</a>
</g>
</g>
<!-- Node3&#45;&gt;Node1 -->
<g id="edge2_Node000001_Node000003" class="edge">
<title>Node3&#45;&gt;Node1</title>
<g id="a_edge2_Node000001_Node000003"><a xlink:title=" ">
<path fill="none" stroke="#63b8ff" d="M196.32,-54.04C182.15,-42.99 163.37,-28.34 151.61,-19.17"/>
<polygon fill="#63b8ff" stroke="#63b8ff" points="194.4,-56.98 204.43,-60.37 198.7,-51.46 194.4,-56.98"/>
</a>
</g>
</g>
</g>
</svg>
