<?xml version="1.0" encoding="UTF-8" standalone="no"?>
<!DOCTYPE svg PUBLIC "-//W3C//DTD SVG 1.1//EN"
 "http://www.w3.org/Graphics/SVG/1.1/DTD/svg11.dtd">
<!-- Generated by graphviz version 2.43.0 (0)
 -->
<!-- Title: yup::Component Pages: 1 -->
<svg width="414pt" height="249pt"
 viewBox="0.00 0.00 414.00 249.00" xmlns="http://www.w3.org/2000/svg" xmlns:xlink="http://www.w3.org/1999/xlink">
<g id="graph0" class="graph" transform="scale(1 1) rotate(0) translate(4 245)">
<title>yup::Component</title>
<!-- Node1 -->
<g id="Node000001" class="node">
<title>Node1</title>
<g id="a_Node000001"><a xlink:title="The Component class is the base class for all GUI components.">
<polygon fill="#999999" stroke="#666666" points="97,-130 0,-130 0,-111 97,-111 97,-130"/>
<text text-anchor="middle" x="48.5" y="-118" font-family="Helvetica,sans-Serif" font-size="10.00">yup::Component</text>
</a>
</g>
</g>
<!-- Node2 -->
<g id="Node000002" class="node">
<title>Node2</title>
<g id="a_Node000002"><a xlink:href="classyup_1_1Artboard.html" target="_top" xlink:title="Represents a Rive artboard.">
<polygon fill="white" stroke="#666666" points="246.5,-241 163.5,-241 163.5,-222 246.5,-222 246.5,-241"/>
<text text-anchor="middle" x="205" y="-229" font-family="Helvetica,sans-Serif" font-size="10.00">yup::Artboard</text>
</a>
</g>
</g>
<!-- Node1&#45;&gt;Node2 -->
<g id="edge1_Node000001_Node000002" class="edge">
<title>Node1&#45;&gt;Node2</title>
<g id="a_edge1_Node000001_Node000002"><a xlink:title=" ">
<path fill="none" stroke="#63b8ff" d="M60.79,-138.52C75.01,-159.72 101.46,-194.43 133,-213.5 142.14,-219.03 152.93,-222.86 163.3,-225.53"/>
<polygon fill="#63b8ff" stroke="#63b8ff" points="63.69,-136.57 55.3,-130.1 57.82,-140.39 63.69,-136.57"/>
</a>
</g>
</g>
<!-- Node3 -->
<g id="Node000003" class="node">
<title>Node3</title>
<g id="a_Node000003"><a xlink:href="classyup_1_1AudioProcessorEditor.html" target="_top" xlink:title=" ">
<polygon fill="white" stroke="#666666" points="277,-204 133,-204 133,-185 277,-185 277,-204"/>
<text text-anchor="middle" x="205" y="-192" font-family="Helvetica,sans-Serif" font-size="10.00">yup::AudioProcessorEditor</text>
</a>
</g>
</g>
<!-- Node1&#45;&gt;Node3 -->
<g id="edge2_Node000001_Node000003" class="edge">
<title>Node1&#45;&gt;Node3</title>
<g id="a_edge2_Node000001_Node000003"><a xlink:title=" ">
<path fill="none" stroke="#63b8ff" d="M69.06,-136.46C85.3,-148.98 109.46,-166 133,-176.5 140.43,-179.82 148.59,-182.6 156.64,-184.91"/>
<polygon fill="#63b8ff" stroke="#63b8ff" points="70.93,-133.48 60.91,-130.03 66.6,-138.97 70.93,-133.48"/>
</a>
</g>
</g>
<!-- Node4 -->
<g id="Node000004" class="node">
<title>Node4</title>
<g id="a_Node000004"><a xlink:href="classyup_1_1Button.html" target="_top" xlink:title=" ">
<polygon fill="white" stroke="#666666" points="241.5,-167 168.5,-167 168.5,-148 241.5,-148 241.5,-167"/>
<text text-anchor="middle" x="205" y="-155" font-family="Helvetica,sans-Serif" font-size="10.00">yup::Button</text>
</a>
</g>
</g>
<!-- Node1&#45;&gt;Node4 -->
<g id="edge3_Node000001_Node000004" class="edge">
<title>Node1&#45;&gt;Node4</title>
<g id="a_edge3_Node000001_Node000004"><a xlink:title=" ">
<path fill="none" stroke="#63b8ff" d="M99.03,-132.36C121.56,-137.76 147.73,-144.03 168.3,-148.95"/>
<polygon fill="#63b8ff" stroke="#63b8ff" points="99.83,-128.95 89.29,-130.03 98.2,-135.76 99.83,-128.95"/>
</a>
</g>
</g>
<!-- Node6 -->
<g id="Node000006" class="node">
<title>Node6</title>
<g id="a_Node000006"><a xlink:href="classyup_1_1DocumentWindow.html" target="_top" xlink:title=" ">
<polygon fill="white" stroke="#666666" points="270,-130 140,-130 140,-111 270,-111 270,-130"/>
<text text-anchor="middle" x="205" y="-118" font-family="Helvetica,sans-Serif" font-size="10.00">yup::DocumentWindow</text>
</a>
</g>
</g>
<!-- Node1&#45;&gt;Node6 -->
<g id="edge5_Node000001_Node000006" class="edge">
<title>Node1&#45;&gt;Node6</title>
<g id="a_edge5_Node000001_Node000006"><a xlink:title=" ">
<path fill="none" stroke="#63b8ff" d="M107.13,-120.5C117.77,-120.5 128.95,-120.5 139.77,-120.5"/>
<polygon fill="#63b8ff" stroke="#63b8ff" points="107.12,-117 97.12,-120.5 107.12,-124 107.12,-117"/>
</a>
</g>
</g>
<!-- Node7 -->
<g id="Node000007" class="node">
<title>Node7</title>
<g id="a_Node000007"><a xlink:href="classyup_1_1Label.html" target="_top" xlink:title="A component that displays text.">
<polygon fill="white" stroke="#666666" points="238.5,-93 171.5,-93 171.5,-74 238.5,-74 238.5,-93"/>
<text text-anchor="middle" x="205" y="-81" font-family="Helvetica,sans-Serif" font-size="10.00">yup::Label</text>
</a>
</g>
</g>
<!-- Node1&#45;&gt;Node7 -->
<g id="edge6_Node000001_Node000007" class="edge">
<title>Node1&#45;&gt;Node7</title>
<g id="a_edge6_Node000001_Node000007"><a xlink:title=" ">
<path fill="none" stroke="#63b8ff" d="M99.15,-108.61C122.8,-102.95 150.42,-96.33 171.37,-91.31"/>
<polygon fill="#63b8ff" stroke="#63b8ff" points="98.2,-105.24 89.29,-110.97 99.83,-112.05 98.2,-105.24"/>
</a>
</g>
</g>
<!-- Node8 -->
<g id="Node000008" class="node">
<title>Node8</title>
<g id="a_Node000008"><a xlink:href="classyup_1_1Slider.html" target="_top" xlink:title=" ">
<polygon fill="white" stroke="#666666" points="239,-56 171,-56 171,-37 239,-37 239,-56"/>
<text text-anchor="middle" x="205" y="-44" font-family="Helvetica,sans-Serif" font-size="10.00">yup::Slider</text>
</a>
</g>
</g>
<!-- Node1&#45;&gt;Node8 -->
<g id="edge7_Node000001_Node000008" class="edge">
<title>Node1&#45;&gt;Node8</title>
<g id="a_edge7_Node000001_Node000008"><a xlink:title=" ">
<path fill="none" stroke="#63b8ff" d="M69.42,-104.72C85.71,-92.49 109.75,-75.94 133,-65.5 144.87,-60.17 158.56,-56.07 170.72,-53.07"/>
<polygon fill="#63b8ff" stroke="#63b8ff" points="67.04,-102.13 61.23,-110.99 71.3,-107.69 67.04,-102.13"/>
</a>
</g>
</g>
<!-- Node9 -->
<g id="Node000009" class="node">
<title>Node9</title>
<g id="a_Node000009"><a xlink:href="classyup_1_1TextEditor.html" target="_top" xlink:title="A component that allows editing text with cursor movement and selection.">
<polygon fill="white" stroke="#666666" points="249.5,-19 160.5,-19 160.5,0 249.5,0 249.5,-19"/>
<text text-anchor="middle" x="205" y="-7" font-family="Helvetica,sans-Serif" font-size="10.00">yup::TextEditor</text>
</a>
</g>
</g>
<!-- Node1&#45;&gt;Node9 -->
<g id="edge8_Node000001_Node000009" class="edge">
<title>Node1&#45;&gt;Node9</title>
<g id="a_edge8_Node000001_Node000009"><a xlink:title=" ">
<path fill="none" stroke="#63b8ff" d="M61.1,-102.42C75.46,-81.49 101.88,-47.48 133,-28.5 141.28,-23.45 150.9,-19.72 160.34,-16.98"/>
<polygon fill="#63b8ff" stroke="#63b8ff" points="58.17,-100.5 55.53,-110.76 63.99,-104.38 58.17,-100.5"/>
</a>
</g>
</g>
<!-- Node5 -->
<g id="Node000005" class="node">
<title>Node5</title>
<g id="a_Node000005"><a xlink:href="classyup_1_1TextButton.html" target="_top" xlink:title=" ">
<polygon fill="white" stroke="#666666" points="406,-167 313,-167 313,-148 406,-148 406,-167"/>
<text text-anchor="middle" x="359.5" y="-155" font-family="Helvetica,sans-Serif" font-size="10.00">yup::TextButton</text>
</a>
</g>
</g>
<!-- Node4&#45;&gt;Node5 -->
<g id="edge4_Node000004_Node000005" class="edge">
<title>Node4&#45;&gt;Node5</title>
<g id="a_edge4_Node000004_Node000005"><a xlink:title=" ">
<path fill="none" stroke="#63b8ff" d="M251.83,-157.5C271.13,-157.5 293.55,-157.5 312.83,-157.5"/>
<polygon fill="#63b8ff" stroke="#63b8ff" points="251.75,-154 241.75,-157.5 251.75,-161 251.75,-154"/>
</a>
</g>
</g>
</g>
</svg>
