<?xml version="1.0" encoding="UTF-8" standalone="no"?>
<!DOCTYPE svg PUBLIC "-//W3C//DTD SVG 1.1//EN"
 "http://www.w3.org/Graphics/SVG/1.1/DTD/svg11.dtd">
<!-- Generated by graphviz version 2.43.0 (0)
 -->
<!-- Title: yup::UndoManager Pages: 1 -->
<svg width="258pt" height="82pt"
 viewBox="0.00 0.00 257.50 82.00" xmlns="http://www.w3.org/2000/svg" xmlns:xlink="http://www.w3.org/1999/xlink">
<g id="graph0" class="graph" transform="scale(1 1) rotate(0) translate(4 78)">
<title>yup::UndoManager</title>
<!-- Node1 -->
<g id="Node000001" class="node">
<title>Node1</title>
<g id="a_Node000001"><a xlink:title="Manages undo and redo functionality for a set of actions.">
<polygon fill="#999999" stroke="#666666" points="202.5,-19 93.5,-19 93.5,0 202.5,0 202.5,-19"/>
<text text-anchor="middle" x="148" y="-7" font-family="Helvetica,sans-Serif" font-size="10.00">yup::UndoManager</text>
</a>
</g>
</g>
<!-- Node2 -->
<g id="Node000002" class="node">
<title>Node2</title>
<g id="a_Node000002"><a xlink:href="classyup_1_1ReferenceCountedObject.html" target="_top" xlink:title="A base class which provides methods for reference&#45;counting.">
<polygon fill="white" stroke="#666666" points="162,-74 0,-74 0,-55 162,-55 162,-74"/>
<text text-anchor="middle" x="81" y="-62" font-family="Helvetica,sans-Serif" font-size="10.00">yup::ReferenceCountedObject</text>
</a>
</g>
</g>
<!-- Node2&#45;&gt;Node1 -->
<g id="edge1_Node000001_Node000002" class="edge">
<title>Node2&#45;&gt;Node1</title>
<g id="a_edge1_Node000001_Node000002"><a xlink:title=" ">
<path fill="none" stroke="#63b8ff" d="M99.83,-48.6C111.84,-39.11 126.97,-27.13 137.04,-19.17"/>
<polygon fill="#63b8ff" stroke="#63b8ff" points="97.44,-46.04 91.76,-54.98 101.78,-51.53 97.44,-46.04"/>
</a>
</g>
</g>
<!-- Node3 -->
<g id="Node000003" class="node">
<title>Node3</title>
<g id="a_Node000003"><a xlink:href="classyup_1_1Timer.html" target="_top" xlink:title="Makes repeated callbacks to a virtual method at a specified time interval.">
<polygon fill="white" stroke="#666666" points="249.5,-74 180.5,-74 180.5,-55 249.5,-55 249.5,-74"/>
<text text-anchor="middle" x="215" y="-62" font-family="Helvetica,sans-Serif" font-size="10.00">yup::Timer</text>
</a>
</g>
</g>
<!-- Node3&#45;&gt;Node1 -->
<g id="edge2_Node000001_Node000003" class="edge">
<title>Node3&#45;&gt;Node1</title>
<g id="a_edge2_Node000001_Node000003"><a xlink:title=" ">
<path fill="none" stroke="#8b1a1a" d="M196.17,-48.6C184.16,-39.11 169.03,-27.13 158.96,-19.17"/>
<polygon fill="#8b1a1a" stroke="#8b1a1a" points="194.22,-51.53 204.24,-54.98 198.56,-46.04 194.22,-51.53"/>
</a>
</g>
</g>
</g>
</svg>
