<?xml version="1.0" encoding="UTF-8" standalone="no"?>
<!DOCTYPE svg PUBLIC "-//W3C//DTD SVG 1.1//EN"
 "http://www.w3.org/Graphics/SVG/1.1/DTD/svg11.dtd">
<!-- Generated by graphviz version 2.43.0 (0)
 -->
<!-- Title: yup::MPEInstrument::Listener Pages: 1 -->
<svg width="151pt" height="148pt"
 viewBox="0.00 0.00 151.00 148.00" xmlns="http://www.w3.org/2000/svg" xmlns:xlink="http://www.w3.org/1999/xlink">
<g id="graph0" class="graph" transform="scale(1 1) rotate(0) translate(4 144)">
<title>yup::MPEInstrument::Listener</title>
<!-- Node1 -->
<g id="Node000001" class="node">
<title>Node1</title>
<g id="a_Node000001"><a xlink:title="Derive from this class to be informed about any changes in the MPE notes played by this instrument,...">
<polygon fill="#999999" stroke="#666666" points="129,-140 14,-140 14,-110 129,-110 129,-140"/>
<text text-anchor="start" x="22" y="-128" font-family="Helvetica,sans-Serif" font-size="10.00">yup::MPEInstrument</text>
<text text-anchor="middle" x="71.5" y="-117" font-family="Helvetica,sans-Serif" font-size="10.00">::Listener</text>
</a>
</g>
</g>
<!-- Node2 -->
<g id="Node000002" class="node">
<title>Node2</title>
<g id="a_Node000002"><a xlink:href="structyup_1_1MPESynthesiserBase.html" target="_top" xlink:title="Derive from this class to create a basic audio generator capable of MPE.">
<polygon fill="white" stroke="#666666" points="143,-74 0,-74 0,-55 143,-55 143,-74"/>
<text text-anchor="middle" x="71.5" y="-62" font-family="Helvetica,sans-Serif" font-size="10.00">yup::MPESynthesiserBase</text>
</a>
</g>
</g>
<!-- Node1&#45;&gt;Node2 -->
<g id="edge1_Node000001_Node000002" class="edge">
<title>Node1&#45;&gt;Node2</title>
<g id="a_edge1_Node000001_Node000002"><a xlink:title=" ">
<path fill="none" stroke="#63b8ff" d="M71.5,-99.75C71.5,-90.72 71.5,-81.03 71.5,-74.27"/>
<polygon fill="#63b8ff" stroke="#63b8ff" points="68,-99.84 71.5,-109.84 75,-99.84 68,-99.84"/>
</a>
</g>
</g>
<!-- Node3 -->
<g id="Node000003" class="node">
<title>Node3</title>
<g id="a_Node000003"><a xlink:href="classyup_1_1MPESynthesiser.html" target="_top" xlink:title="Base class for an MPE&#45;compatible musical device that can play sounds.">
<polygon fill="white" stroke="#666666" points="131,-19 12,-19 12,0 131,0 131,-19"/>
<text text-anchor="middle" x="71.5" y="-7" font-family="Helvetica,sans-Serif" font-size="10.00">yup::MPESynthesiser</text>
</a>
</g>
</g>
<!-- Node2&#45;&gt;Node3 -->
<g id="edge2_Node000002_Node000003" class="edge">
<title>Node2&#45;&gt;Node3</title>
<g id="a_edge2_Node000002_Node000003"><a xlink:title=" ">
<path fill="none" stroke="#63b8ff" d="M71.5,-44.66C71.5,-35.93 71.5,-25.99 71.5,-19.09"/>
<polygon fill="#63b8ff" stroke="#63b8ff" points="68,-44.75 71.5,-54.75 75,-44.75 68,-44.75"/>
</a>
</g>
</g>
</g>
</svg>
