<?xml version="1.0" encoding="UTF-8" standalone="no"?>
<!DOCTYPE svg PUBLIC "-//W3C//DTD SVG 1.1//EN"
 "http://www.w3.org/Graphics/SVG/1.1/DTD/svg11.dtd">
<!-- Generated by graphviz version 2.43.0 (0)
 -->
<!-- Title: yup::NetworkServiceDiscovery::AvailableServiceList Pages: 1 -->
<svg width="210pt" height="93pt"
 viewBox="0.00 0.00 209.50 93.00" xmlns="http://www.w3.org/2000/svg" xmlns:xlink="http://www.w3.org/1999/xlink">
<g id="graph0" class="graph" transform="scale(1 1) rotate(0) translate(4 89)">
<title>yup::NetworkServiceDiscovery::AvailableServiceList</title>
<!-- Node1 -->
<g id="Node000001" class="node">
<title>Node1</title>
<g id="a_Node000001"><a xlink:title="Watches the network for broadcasts from Advertiser objects, and keeps a list of all the currently act...">
<polygon fill="#999999" stroke="#666666" points="175.5,-30 8.5,-30 8.5,0 175.5,0 175.5,-30"/>
<text text-anchor="start" x="16.5" y="-18" font-family="Helvetica,sans-Serif" font-size="10.00">yup::NetworkServiceDiscovery</text>
<text text-anchor="middle" x="92" y="-7" font-family="Helvetica,sans-Serif" font-size="10.00">::AvailableServiceList</text>
</a>
</g>
</g>
<!-- Node2 -->
<g id="Node000002" class="node">
<title>Node2</title>
<g id="a_Node000002"><a xlink:href="classyup_1_1Thread.html" target="_top" xlink:title="Encapsulates a thread.">
<polygon fill="white" stroke="#666666" points="74,-85 0,-85 0,-66 74,-66 74,-85"/>
<text text-anchor="middle" x="37" y="-73" font-family="Helvetica,sans-Serif" font-size="10.00">yup::Thread</text>
</a>
</g>
</g>
<!-- Node2&#45;&gt;Node1 -->
<g id="edge1_Node000001_Node000002" class="edge">
<title>Node2&#45;&gt;Node1</title>
<g id="a_edge1_Node000001_Node000002"><a xlink:title=" ">
<path fill="none" stroke="#8b1a1a" d="M52.11,-58.43C60.45,-49.56 70.71,-38.65 78.73,-30.11"/>
<polygon fill="#8b1a1a" stroke="#8b1a1a" points="49.42,-56.19 45.12,-65.87 54.52,-60.98 49.42,-56.19"/>
</a>
</g>
</g>
<!-- Node3 -->
<g id="Node000003" class="node">
<title>Node3</title>
<g id="a_Node000003"><a xlink:href="classyup_1_1AsyncUpdater.html" target="_top" xlink:title="Has a callback method that is triggered asynchronously.">
<polygon fill="white" stroke="#666666" points="201.5,-85 92.5,-85 92.5,-66 201.5,-66 201.5,-85"/>
<text text-anchor="middle" x="147" y="-73" font-family="Helvetica,sans-Serif" font-size="10.00">yup::AsyncUpdater</text>
</a>
</g>
</g>
<!-- Node3&#45;&gt;Node1 -->
<g id="edge2_Node000001_Node000003" class="edge">
<title>Node3&#45;&gt;Node1</title>
<g id="a_edge2_Node000001_Node000003"><a xlink:title=" ">
<path fill="none" stroke="#8b1a1a" d="M131.89,-58.43C123.55,-49.56 113.29,-38.65 105.27,-30.11"/>
<polygon fill="#8b1a1a" stroke="#8b1a1a" points="129.48,-60.98 138.88,-65.87 134.58,-56.19 129.48,-60.98"/>
</a>
</g>
</g>
</g>
</svg>
